<?xml version="1.0" standalone="no"?>
<!DOCTYPE svg PUBLIC "-//W3C//DTD SVG 20010904//EN"
 "http://www.w3.org/TR/2001/REC-SVG-20010904/DTD/svg10.dtd">
<svg version="1.0" xmlns="http://www.w3.org/2000/svg"
 width="230.000000pt" height="220.000000pt" viewBox="0 0 230.000000 220.000000"
 preserveAspectRatio="xMidYMid meet">

<g transform="translate(0.000000,220.000000) scale(0.100000,-0.100000)"
fill="#000000" stroke="none">
<path d="M1030 1871 c-91 -30 -181 -105 -219 -184 -27 -56 -43 -142 -35 -189
l6 -38 -52 0 c-32 0 -57 6 -66 15 -13 13 -56 15 -258 15 -175 0 -245 -3 -254
-12 -16 -16 -16 -160 0 -176 8 -8 57 -12 153 -12 133 0 142 -1 177 -25 45 -30
46 -31 50 -2 3 20 10 22 63 25 32 2 65 8 72 14 8 7 13 35 13 79 l0 69 48 0
c26 0 53 -5 58 -10 7 -7 28 0 65 19 47 26 67 30 138 32 64 1 84 5 89 17 3 9 0
18 -6 20 -7 2 -12 9 -12 15 0 6 -12 21 -27 33 -18 14 -24 26 -20 38 9 22 27
11 27 -16 0 -27 7 -20 13 12 15 78 14 76 77 78 l59 1 11 -37 c5 -20 10 -44 11
-52 0 -8 5 -4 10 9 6 16 13 21 20 14 12 -12 1 -43 -15 -43 -12 0 -36 -45 -36
-69 0 -13 12 -15 75 -13 71 3 79 1 140 -33 36 -20 65 -31 65 -25 0 6 45 11
123 12 l122 2 -117 3 -118 4 0 68 c0 37 -5 82 -10 98 -9 25 -16 29 -38 27 -27
-4 -27 -4 2 6 16 5 33 7 38 4 4 -3 8 0 8 5 0 6 -13 11 -28 11 -19 0 -29 5 -29
15 0 9 6 14 13 11 8 -3 15 -2 18 2 3 5 -15 14 -40 21 -24 7 -46 16 -48 20 -8
14 15 51 33 51 10 0 22 7 25 16 4 10 14 14 26 11 29 -7 25 2 -6 13 -26 10 -25
30 2 30 8 0 12 -4 9 -10 -3 -5 0 -7 8 -4 22 8 67 -52 67 -89 0 -18 -9 -48 -21
-67 l-21 -35 21 20 c46 44 43 120 -5 166 -34 32 -102 32 -146 -1 l-31 -23 -46
23 c-36 18 -66 24 -136 26 -49 2 -101 0 -115 -5z m380 -47 c0 -8 -5 -12 -10
-9 -6 4 -8 11 -5 16 9 14 15 11 15 -7z m-1000 -384 c0 -6 -45 -10 -115 -10
-70 0 -115 4 -115 10 0 6 45 10 115 10 70 0 115 -4 115 -10z m210 0 c0 -6 -38
-10 -95 -10 -57 0 -95 4 -95 10 0 6 38 10 95 10 57 0 95 -4 95 -10z m-330 -50
c0 -5 -22 -10 -49 -10 -28 0 -53 5 -56 10 -4 6 15 10 49 10 31 0 56 -4 56 -10z
m120 0 c0 -5 -15 -10 -34 -10 -19 0 -38 5 -41 10 -4 6 10 10 34 10 23 0 41 -4
41 -10z m27 -47 c-48 -2 -126 -2 -175 0 -48 1 -8 3 88 3 96 0 136 -2 87 -3z"/>
<path d="M1493 1805 c0 -8 4 -12 9 -9 5 3 6 10 3 15 -9 13 -12 11 -12 -6z"/>
<path d="M1448 1793 c7 -3 16 -2 19 1 4 3 -2 6 -13 5 -11 0 -14 -3 -6 -6z"/>
<path d="M500 1713 c1 -19 16 -31 29 -24 7 5 10 14 7 20 -8 12 -36 15 -36 4z"/>
<path d="M1085 1651 c-3 -5 -2 -12 3 -15 5 -3 9 1 9 9 0 17 -3 19 -12 6z"/>
<path d="M1159 1652 c9 -7 10 -11 2 -15 -7 -4 -8 -5 0 -3 15 2 13 20 -3 24
-10 3 -10 2 1 -6z"/>
<path d="M1642 1649 c2 -6 8 -10 13 -10 5 0 11 4 13 10 2 6 -4 11 -13 11 -9 0
-15 -5 -13 -11z"/>
<path d="M1134 1628 c2 -15 -2 -29 -8 -32 -7 -3 -7 -5 1 -5 17 -1 21 11 12 39
-9 25 -9 25 -5 -2z"/>
<path d="M1100 1562 c0 -10 46 -10 56 1 4 4 -7 7 -24 7 -18 0 -32 -4 -32 -8z"/>
<path d="M1730 1490 c-13 -9 -13 -11 0 -20 8 -5 22 -10 30 -11 10 0 8 -3 -5
-9 -17 -7 -14 -9 13 -9 24 -1 31 -5 26 -13 -6 -10 -4 -10 7 0 28 26 65 10 53
-23 -6 -13 -15 -16 -43 -11 -25 4 -31 2 -21 -4 8 -5 30 -10 48 -10 24 0 32 5
33 18 0 12 2 13 6 3 3 -8 -2 -20 -12 -28 -10 -7 -15 -16 -12 -20 4 -4 13 -1
19 5 18 18 50 15 46 -5 -2 -9 -10 -19 -18 -21 -13 -5 -13 -3 0 13 14 17 13 18
-3 12 -10 -4 -21 -7 -24 -7 -3 0 0 -7 7 -15 10 -12 36 -15 117 -15 102 0 105
1 134 29 44 44 35 116 -18 140 -30 14 -362 15 -383 1z m120 -30 c0 -5 -2 -10
-4 -10 -3 0 -8 5 -11 10 -3 6 -1 10 4 10 6 0 11 -4 11 -10z m95 -45 c0 -22
-31 -33 -47 -17 -17 17 -1 44 24 40 15 -2 23 -10 23 -23z m90 0 c0 -25 -40
-33 -49 -10 -9 24 2 37 27 33 14 -2 22 -10 22 -23z"/>
<path d="M1830 1345 c7 -8 17 -15 22 -15 5 0 3 7 -6 15 -8 8 -18 15 -22 15 -3
0 -1 -7 6 -15z"/>
<path d="M1336 1295 c3 -16 11 -34 17 -40 6 -7 7 0 3 20 -4 17 -12 35 -17 40
-7 7 -8 0 -3 -20z"/>
<path d="M952 1249 c-14 -22 -7 -25 14 -5 8 8 11 17 6 20 -4 2 -13 -4 -20 -15z"/>
<path d="M589 1227 c-40 -27 -49 -67 -22 -94 17 -18 19 -17 42 10 21 25 25 26
40 14 9 -8 26 -18 39 -21 12 -4 22 -13 22 -19 0 -7 4 -6 10 3 23 36 3 101 -37
119 -35 16 -56 14 -94 -12z"/>
<path d="M1567 1210 c-31 -25 -53 -90 -66 -195 -5 -44 -9 -80 -8 -81 1 -1 23
3 50 9 37 9 47 16 47 32 0 11 -9 28 -20 38 -15 13 -20 29 -20 69 0 53 0 53 40
66 22 6 44 12 50 12 18 0 43 -64 41 -110 0 -40 -20 -157 -36 -215 -3 -14 3
-26 20 -38 24 -17 24 -17 18 0 -3 10 -3 15 2 11 4 -4 14 -3 22 3 7 6 13 8 13
5 0 -4 9 -2 20 4 18 10 20 21 20 138 0 183 -18 231 -95 258 -54 18 -68 18 -98
-6z m143 -120 c0 -11 -4 -20 -10 -20 -5 0 -10 9 -10 20 0 11 5 20 10 20 6 0
10 -9 10 -20z"/>
<path d="M1230 1199 c0 -5 5 -7 10 -4 6 3 10 8 10 11 0 2 -4 4 -10 4 -5 0 -10
-5 -10 -11z"/>
<path d="M1028 1193 c7 -3 16 -2 19 1 4 3 -2 6 -13 5 -11 0 -14 -3 -6 -6z"/>
<path d="M1098 1183 c7 -3 16 -2 19 1 4 3 -2 6 -13 5 -11 0 -14 -3 -6 -6z"/>
<path d="M638 1123 c7 -3 16 -2 19 1 4 3 -2 6 -13 5 -11 0 -14 -3 -6 -6z"/>
<path d="M1564 1106 c1 -8 5 -18 8 -22 4 -3 5 1 4 10 -1 8 -5 18 -8 22 -4 3
-5 -1 -4 -10z"/>
<path d="M1613 1105 c0 -8 4 -12 9 -9 5 3 6 10 3 15 -9 13 -12 11 -12 -6z"/>
<path d="M1095 1039 c-77 -44 -51 -149 37 -149 67 0 103 83 56 128 -29 26 -67
35 -93 21z m45 -39 c0 -13 7 -20 20 -20 11 0 20 -7 20 -15 0 -8 -9 -15 -20
-15 -13 0 -20 -7 -20 -20 0 -11 -4 -20 -10 -20 -5 0 -10 9 -10 19 0 13 -8 21
-22 23 -13 2 -23 8 -23 13 0 6 10 11 23 13 14 2 22 10 22 23 0 10 5 19 10 19
6 0 10 -9 10 -20z"/>
<path d="M459 962 c-42 -22 -61 -40 -87 -82 -53 -89 -53 -97 6 -151 28 -26 72
-57 98 -70 64 -31 184 -38 253 -15 42 13 94 16 297 16 135 -1 249 1 252 4 3 4
-104 6 -239 6 -231 0 -242 1 -219 17 14 9 27 18 28 19 6 4 -48 185 -64 216 -8
15 -33 37 -56 49 -37 19 -45 20 -80 8 -29 -9 -44 -10 -63 -1 -40 18 -68 15
-126 -16z"/>
<path d="M1445 803 c-3 -15 -14 -33 -23 -41 -9 -7 -11 -11 -4 -7 6 3 16 3 22
0 15 -10 -12 -33 -32 -27 -21 5 -23 -6 -4 -30 7 -10 16 -14 21 -10 4 4 4 -4 0
-17 -5 -17 -4 -21 5 -16 6 4 9 16 7 27 -7 24 1 48 15 48 6 0 8 -7 4 -15 -8
-21 0 -19 24 8 14 14 19 16 15 6 -4 -10 -2 -20 4 -23 6 -4 9 5 7 21 -1 16 1
36 6 45 6 14 5 16 -7 12 -8 -4 -15 -13 -15 -21 0 -8 -4 -12 -9 -9 -5 4 -12 0
-14 -6 -3 -7 -6 0 -6 15 -1 16 4 37 9 48 8 15 7 19 -4 19 -7 0 -17 -12 -21
-27z"/>
<path d="M1735 800 c-19 -8 -19 -9 3 -9 12 -1 22 4 22 9 0 6 -1 10 -2 9 -2 0
-12 -4 -23 -9z"/>
<path d="M1576 785 c-3 -9 -4 -21 0 -26 3 -5 3 -9 -1 -9 -3 0 -10 10 -15 23
l-9 22 0 -24 c-1 -18 -5 -22 -18 -16 -15 5 -16 4 -5 -6 6 -7 12 -17 12 -22 0
-4 -6 -5 -12 -1 -9 5 -9 2 1 -9 15 -18 26 -23 16 -7 -8 12 -3 13 29 0 18 -7
26 -6 26 1 0 7 6 6 17 -2 9 -8 14 -9 10 -3 -4 8 2 11 18 10 14 0 25 -5 25 -11
0 -5 4 -3 10 5 5 9 5 19 -2 27 -8 10 -7 12 5 8 8 -4 18 -2 21 4 9 15 -13 24
-28 12 -7 -6 -17 -7 -22 -3 -4 4 -3 0 4 -10 15 -19 2 -31 -23 -22 -13 5 -14 8
-3 15 10 6 10 10 0 19 -6 5 -10 7 -7 4 5 -8 -14 -34 -24 -34 -4 0 -8 14 -9 32
-3 38 -7 44 -16 23z m-5 -49 c5 3 9 0 9 -6 0 -15 -23 -7 -26 8 -1 7 0 8 3 2 2
-5 9 -8 14 -4z"/>
<path d="M1860 769 c0 -5 -4 -7 -10 -4 -6 4 -7 -1 -3 -11 4 -12 3 -15 -5 -10
-18 11 -72 16 -72 6 0 -4 18 -10 41 -12 29 -3 43 1 49 12 5 8 12 11 16 7 4 -4
-3 -18 -16 -32 -13 -14 -20 -25 -15 -25 15 0 46 44 40 58 -3 7 -5 16 -5 18 0
2 -4 4 -10 4 -5 0 -10 -5 -10 -11z"/>
<path d="M1735 760 c3 -5 1 -10 -4 -10 -6 0 -11 -7 -11 -16 0 -8 -4 -12 -10
-9 -5 3 -10 1 -10 -5 0 -7 7 -10 15 -6 10 4 15 -1 16 -17 0 -15 2 -17 6 -7 4
8 13 21 22 28 14 11 13 12 -6 7 -14 -4 -23 -2 -23 4 0 6 6 11 13 11 8 0 14 7
14 15 0 8 -7 15 -14 15 -8 0 -11 -4 -8 -10z"/>
<path d="M932 723 c37 -2 100 -2 140 0 40 1 10 3 -67 3 -77 0 -110 -1 -73 -3z"/>
<path d="M1188 723 c23 -2 61 -2 85 0 23 2 4 4 -43 4 -47 0 -66 -2 -42 -4z"/>
<path d="M1780 720 c0 -5 7 -10 16 -10 8 0 12 5 9 10 -3 6 -10 10 -16 10 -5 0
-9 -4 -9 -10z"/>
<path d="M1821 718 c0 -11 -9 -18 -22 -18 -16 0 -19 -4 -14 -20 8 -25 -10 -26
-25 -2 -10 15 -11 15 -7 -4 4 -17 1 -20 -14 -17 -11 3 -19 10 -19 17 0 6 -4 5
-9 -3 -5 -8 -18 -12 -30 -8 -15 3 -26 -2 -36 -16 -9 -12 -19 -21 -22 -19 -4 2
-9 -2 -12 -9 -8 -25 152 15 197 49 17 13 23 26 19 43 -2 14 -5 17 -6 7z m-97
-66 c3 -5 -1 -9 -9 -9 -8 0 -12 4 -9 9 3 4 7 8 9 8 2 0 6 -4 9 -8z m-37 -8
c-3 -3 -12 -4 -19 -1 -8 3 -5 6 6 6 11 1 17 -2 13 -5z"/>
<path d="M1478 683 c7 -3 16 -2 19 1 4 3 -2 6 -13 5 -11 0 -14 -3 -6 -6z"/>
<path d="M1648 683 c7 -3 16 -2 19 1 4 3 -2 6 -13 5 -11 0 -14 -3 -6 -6z"/>
<path d="M1541 673 c-1 -9 -15 -11 -46 -8 -25 2 -45 2 -45 0 0 -9 58 -34 64
-28 3 3 19 6 36 5 16 0 30 4 30 9 0 6 7 6 18 1 18 -10 42 -5 42 8 0 4 -15 6
-32 5 -18 -1 -36 3 -40 9 -5 7 -8 3 -9 -9 l0 -20 -9 20 c-5 11 -9 14 -9 8z"/>
<path d="M1140 606 c0 -14 4 -27 8 -30 5 -3 6 8 4 25 -5 35 -12 38 -12 5z"/>
<path d="M1930 612 c0 -5 7 -9 15 -9 8 0 12 4 9 9 -3 4 -9 8 -15 8 -5 0 -9 -4
-9 -8z"/>
<path d="M873 513 c64 -2 170 -2 235 0 64 1 11 3 -118 3 -129 0 -182 -2 -117
-3z"/>
<path d="M763 473 c185 -2 489 -2 675 0 185 1 33 2 -338 2 -371 0 -523 -1
-337 -2z"/>
<path d="M0 75 l0 -75 1150 0 1150 0 0 75 0 75 -1150 0 -1150 0 0 -75z m109
21 c6 -7 9 -21 5 -30 -8 -21 -25 -10 -18 12 5 14 4 15 -5 2 -10 -13 -12 -13
-21 0 -7 11 -10 11 -10 2 0 -7 7 -15 15 -18 19 -8 20 -24 0 -24 -7 0 -18 8
-24 17 -21 38 30 72 58 39z m56 -16 c-3 -5 -2 -10 4 -10 5 0 11 5 13 12 5 14
38 4 38 -12 0 -5 -18 -10 -40 -10 -38 0 -49 8 -33 23 10 11 25 8 18 -3z m75
-5 c0 -19 -6 -19 -14 0 -3 8 -1 15 4 15 6 0 10 -7 10 -15z m112 0 c5 -6 8 -5
8 3 0 6 6 12 13 12 8 0 14 -6 14 -14 0 -11 -15 -14 -69 -13 -45 1 -68 5 -68
13 0 15 92 14 102 -1z"/>
</g>
</svg>
